<svg width="220" height="40" viewBox="0 0 220 40" fill="none" xmlns="http://www.w3.org/2000/svg">
<path d="M11.0668 23.0283C11.0668 24.0218 10.8263 24.8604 10.3453 25.5439C9.86438 26.2275 9.16108 26.7471 8.23544 27.1025C7.31888 27.4489 6.19359 27.6221 4.85959 27.6221C3.80691 27.6221 2.89942 27.5446 2.13713 27.3896C1.38392 27.2438 0.67154 27.016 0 26.7061V23.9307C0.716914 24.2679 1.52004 24.5596 2.40938 24.8057C3.30779 25.0518 4.15629 25.1748 4.95488 25.1748C6.00756 25.1748 6.76531 25.0107 7.22813 24.6826C7.69095 24.3454 7.92236 23.8988 7.92236 23.3428C7.92236 23.0146 7.82707 22.723 7.6365 22.4678C7.455 22.2035 7.11016 21.9346 6.60196 21.6611C6.10285 21.3786 5.36778 21.0413 4.39677 20.6494C3.44391 20.2666 2.64079 19.8838 1.9874 19.501C1.33401 19.1182 0.839425 18.6579 0.503655 18.1201C0.167885 17.5732 0 16.876 0 16.0283C0 14.6885 0.526342 13.6722 1.57903 12.9795C2.64079 12.2777 4.04285 11.9268 5.78523 11.9268C6.71086 11.9268 7.58205 12.0225 8.39879 12.2139C9.2246 12.3962 10.0323 12.665 10.8218 13.0205L9.81447 15.4404C9.13385 15.1397 8.4487 14.8936 7.75901 14.7022C7.07839 14.5016 6.38417 14.4014 5.67633 14.4014C4.85051 14.4014 4.21981 14.529 3.78422 14.7842C3.3577 15.0394 3.14444 15.404 3.14444 15.8779C3.14444 16.2334 3.2488 16.5342 3.45752 16.7803C3.66625 17.0264 4.0247 17.2725 4.5329 17.5186C5.05016 17.7646 5.76708 18.07 6.68364 18.4346C7.58205 18.7809 8.35795 19.1455 9.01134 19.5283C9.67381 19.902 10.182 20.3623 10.5359 20.9092C10.8898 21.4561 11.0668 22.1624 11.0668 23.0283Z" fill="white"/>
<path d="M20.5273 11.9268C21.8704 11.9268 23.0229 12.2048 23.9849 12.7607C24.9468 13.3167 25.6864 14.1051 26.2037 15.126C26.7209 16.1468 26.9796 17.3682 26.9796 18.79V20.5127H16.9201C16.9564 21.9801 17.3466 23.1104 18.0907 23.9033C18.844 24.6963 19.8966 25.0928 21.2488 25.0928C22.2107 25.0928 23.0728 25.0016 23.8351 24.8193C24.6065 24.6279 25.4005 24.3499 26.2173 23.9854V26.5967C25.4641 26.9521 24.6972 27.2119 23.9168 27.376C23.1364 27.54 22.2017 27.6221 21.1127 27.6221C19.6335 27.6221 18.3312 27.335 17.2059 26.7607C16.0897 26.1774 15.214 25.3115 14.5788 24.1631C13.9526 23.0146 13.6395 21.5882 13.6395 19.8838C13.6395 18.1885 13.9254 16.7484 14.4971 15.5635C15.0688 14.3786 15.8719 13.4762 16.9065 12.8564C17.941 12.2367 19.148 11.9268 20.5273 11.9268ZM20.5273 14.3467C19.52 14.3467 18.7033 14.6748 18.0771 15.3311C17.46 15.9873 17.097 16.9489 16.9881 18.2158H23.8487C23.8397 17.4593 23.7126 16.7894 23.4676 16.2061C23.2317 15.6227 22.8687 15.167 22.3786 14.8389C21.8976 14.5107 21.2806 14.3467 20.5273 14.3467Z" fill="white"/>
<path d="M28.3136 12.2139H31.7983L34.8883 20.8545C35.0244 21.2464 35.1469 21.6338 35.2558 22.0166C35.3738 22.3903 35.4736 22.7594 35.5553 23.124C35.6461 23.4886 35.7187 23.8532 35.7731 24.2178H35.8548C35.9455 23.7438 36.0726 23.2152 36.2359 22.6318C36.4084 22.0394 36.5989 21.4469 36.8076 20.8545L39.7751 12.2139H43.219L36.7532 29.4268C36.3811 30.4111 35.9228 31.2497 35.3784 31.9424C34.8429 32.6442 34.2077 33.1729 33.4726 33.5283C32.7376 33.8929 31.8981 34.0752 30.9544 34.0752C30.5006 34.0752 30.1059 34.0479 29.7701 33.9932C29.4343 33.9476 29.1485 33.8975 28.9125 33.8428V31.2725C29.1031 31.318 29.3436 31.359 29.634 31.3955C29.9244 31.432 30.2238 31.4502 30.5324 31.4502C31.1041 31.4502 31.5987 31.3363 32.0161 31.1084C32.4336 30.8805 32.7875 30.557 33.0779 30.1377C33.3683 29.7275 33.6088 29.2581 33.7993 28.7295L34.3302 27.3076L28.3136 12.2139Z" fill="white"/>
<path d="M53.0335 14.6611H49.3718V27.3486H46.1729V14.6611H43.7091V13.1162L46.1729 12.1729V11.1201C46.1729 9.83496 46.3726 8.81413 46.7719 8.05762C47.1802 7.30111 47.761 6.75879 48.5142 6.43067C49.2765 6.09343 50.184 5.92481 51.2367 5.92481C51.9264 5.92481 52.5571 5.98405 53.1288 6.10254C53.7005 6.21192 54.1815 6.33952 54.5717 6.48535L53.7413 8.91895C53.4328 8.81869 53.088 8.72754 52.7068 8.64551C52.3257 8.55436 51.9173 8.50879 51.4817 8.50879C50.7557 8.50879 50.2203 8.73666 49.8755 9.19238C49.5397 9.64811 49.3718 10.3135 49.3718 11.1885V12.2139H53.0335V14.6611Z" fill="white"/>
<path d="M79.6514 0H80.647V40H79.6514V0Z" fill="#D9D9D9"/>
<path d="M99.4087 11.7422C101.033 11.7422 102.249 12.1523 103.057 12.9727C103.864 13.793 104.268 15.1009 104.268 16.8965V26.8633H103.206L102.961 24.2656H102.88C102.562 24.8216 102.176 25.3184 101.723 25.7559C101.269 26.1842 100.711 26.5215 100.048 26.7676C99.395 27.0137 98.5965 27.1367 97.6527 27.1367C96.6998 27.1367 95.8831 26.9772 95.2025 26.6582C94.5309 26.3392 94.0091 25.8743 93.637 25.2637C93.274 24.653 93.0925 23.9102 93.0925 23.0352C93.0925 21.5586 93.7006 20.4375 94.9166 19.6719C96.1326 18.8971 97.8795 18.4596 100.157 18.3594L102.907 18.2227V17.1426C102.907 15.6204 102.608 14.5358 102.009 13.8887C101.41 13.2415 100.525 12.918 99.3542 12.918C98.5919 12.918 97.8568 13.0182 97.149 13.2188C96.4502 13.4102 95.7379 13.6882 95.0119 14.0527L94.5763 12.9043C95.2841 12.5671 96.0419 12.2891 96.8495 12.0703C97.6663 11.8516 98.5193 11.7422 99.4087 11.7422ZM102.893 19.3027L100.307 19.4121C98.4286 19.5033 96.9993 19.8405 96.0192 20.4238C95.0391 21.0072 94.5491 21.8822 94.5491 23.0488C94.5491 23.9876 94.8395 24.7077 95.4202 25.209C96.0101 25.7103 96.8269 25.9609 97.8705 25.9609C99.4949 25.9609 100.734 25.4961 101.587 24.5664C102.449 23.6367 102.884 22.3698 102.893 20.7656V19.3027Z" fill="#808080"/>
<path d="M114.913 11.7422C115.303 11.7422 115.671 11.765 116.016 11.8105C116.361 11.8561 116.683 11.9199 116.982 12.002L116.764 13.2734C116.465 13.1914 116.161 13.1322 115.852 13.0957C115.544 13.0501 115.213 13.0273 114.859 13.0273C114.16 13.0273 113.534 13.1595 112.98 13.4238C112.436 13.6882 111.973 14.0664 111.592 14.5586C111.211 15.0508 110.92 15.6432 110.72 16.3359C110.521 17.0286 110.421 17.8034 110.421 18.6602V26.8633H109.033V12.002H110.217L110.353 14.8047H110.435C110.661 14.2305 110.979 13.7155 111.387 13.2598C111.805 12.7949 112.309 12.4258 112.898 12.1523C113.488 11.8789 114.16 11.7422 114.913 11.7422Z" fill="#808080"/>
<path d="M123.884 25.9473C124.31 25.9473 124.705 25.9154 125.068 25.8516C125.44 25.7878 125.767 25.7057 126.048 25.6055V26.7539C125.758 26.8542 125.417 26.9408 125.027 27.0137C124.637 27.0957 124.206 27.1367 123.734 27.1367C122.899 27.1367 122.205 26.9818 121.651 26.6719C121.098 26.3529 120.68 25.8743 120.399 25.2363C120.118 24.5892 119.977 23.7689 119.977 22.7754V13.1504H117.772V12.3301L119.963 11.9062L120.44 8.40625H121.352V12.002H125.966V13.1504H121.352V22.6934C121.352 23.7598 121.547 24.571 121.937 25.127C122.336 25.6738 122.985 25.9473 123.884 25.9473Z" fill="#808080"/>
<path d="M142.492 6.56055C143.39 6.56055 144.18 6.72917 144.86 7.06641C145.541 7.39453 146.067 7.86849 146.439 8.48828C146.82 9.10807 147.011 9.84635 147.011 10.7031C147.011 11.9518 146.598 12.9818 145.772 13.793C144.955 14.6042 143.88 15.3516 142.546 16.0352L148.794 22.3105C149.32 21.6725 149.779 20.9342 150.169 20.0957C150.559 19.2572 150.868 18.3503 151.095 17.375H152.497C152.215 18.5417 151.839 19.6126 151.367 20.5879C150.895 21.5632 150.332 22.4427 149.679 23.2266L153.259 26.8633H151.408L148.78 24.1426C148.2 24.7259 147.574 25.2454 146.902 25.7012C146.24 26.1569 145.495 26.5124 144.67 26.7676C143.844 27.0137 142.891 27.1367 141.811 27.1367C140.586 27.1367 139.51 26.9316 138.585 26.5215C137.668 26.1113 136.951 25.5098 136.434 24.7168C135.917 23.9147 135.658 22.9349 135.658 21.7773C135.658 20.7656 135.849 19.9134 136.23 19.2207C136.611 18.5189 137.16 17.9036 137.877 17.375C138.594 16.8372 139.456 16.3086 140.463 15.7891C139.91 15.2148 139.424 14.6771 139.007 14.1758C138.589 13.6654 138.263 13.1413 138.027 12.6035C137.8 12.0658 137.686 11.4642 137.686 10.7988C137.686 9.93294 137.886 9.18555 138.285 8.55664C138.685 7.91862 139.243 7.42643 139.96 7.08008C140.686 6.73372 141.53 6.56055 142.492 6.56055ZM141.335 16.6914C140.427 17.1471 139.656 17.5983 139.02 18.0449C138.394 18.4915 137.918 19.0065 137.591 19.5898C137.264 20.1641 137.101 20.8796 137.101 21.7363C137.101 23.0397 137.532 24.0605 138.394 24.7988C139.265 25.528 140.413 25.8926 141.838 25.8926C143.254 25.8926 144.429 25.651 145.364 25.168C146.298 24.6758 147.142 24.0423 147.896 23.2676L141.335 16.6914ZM142.451 7.75C141.407 7.75 140.581 8.02344 139.973 8.57031C139.365 9.11719 139.061 9.86003 139.061 10.7988C139.061 11.5827 139.284 12.3027 139.728 12.959C140.173 13.6061 140.804 14.349 141.62 15.1875C142.918 14.5586 143.912 13.9069 144.601 13.2324C145.291 12.5488 145.636 11.7057 145.636 10.7031C145.636 9.80078 145.346 9.08529 144.765 8.55664C144.184 8.01888 143.413 7.75 142.451 7.75Z" fill="#808080"/>
<path d="M170.165 11.7148C172.071 11.7148 173.546 12.3574 174.589 13.6426C175.642 14.9277 176.168 16.8236 176.168 19.3301C176.168 21.0072 175.919 22.429 175.42 23.5957C174.921 24.7533 174.208 25.6328 173.283 26.2344C172.366 26.8359 171.263 27.1367 169.975 27.1367C169.085 27.1367 168.31 27.0046 167.647 26.7402C166.994 26.4668 166.449 26.1022 166.014 25.6465C165.578 25.1816 165.242 24.6712 165.006 24.1152H164.911C164.938 24.6348 164.961 25.1771 164.979 25.7422C164.997 26.3073 165.006 26.8405 165.006 27.3418V33.4395H163.618V12.002H164.761L164.925 14.9688H165.006C165.251 14.4036 165.596 13.8704 166.041 13.3691C166.486 12.8678 167.048 12.4668 167.729 12.166C168.409 11.8652 169.222 11.7148 170.165 11.7148ZM169.988 12.9316C168.872 12.9316 167.942 13.1777 167.198 13.6699C166.463 14.153 165.914 14.8639 165.551 15.8027C165.197 16.7324 165.015 17.8717 165.006 19.2207V19.4531C165.006 20.9023 165.183 22.11 165.537 23.0762C165.9 24.0332 166.44 24.7487 167.157 25.2227C167.883 25.6966 168.781 25.9336 169.852 25.9336C170.905 25.9336 171.794 25.6738 172.52 25.1543C173.246 24.6348 173.8 23.8828 174.181 22.8984C174.562 21.9141 174.753 20.7201 174.753 19.3164C174.753 17.2292 174.353 15.6432 173.555 14.5586C172.765 13.474 171.577 12.9316 169.988 12.9316Z" fill="#808080"/>
<path d="M186.105 11.7422C186.496 11.7422 186.863 11.765 187.208 11.8105C187.553 11.8561 187.875 11.9199 188.174 12.002L187.957 13.2734C187.657 13.1914 187.353 13.1322 187.045 13.0957C186.736 13.0501 186.405 13.0273 186.051 13.0273C185.352 13.0273 184.726 13.1595 184.172 13.4238C183.628 13.6882 183.165 14.0664 182.784 14.5586C182.403 15.0508 182.112 15.6432 181.913 16.3359C181.713 17.0286 181.613 17.8034 181.613 18.6602V26.8633H180.225V12.002H181.409L181.545 14.8047H181.627C181.854 14.2305 182.171 13.7155 182.58 13.2598C182.997 12.7949 183.501 12.4258 184.091 12.1523C184.681 11.8789 185.352 11.7422 186.105 11.7422Z" fill="#808080"/>
<path d="M203.352 19.4121C203.352 20.5605 203.212 21.6087 202.93 22.5566C202.649 23.4954 202.231 24.3066 201.678 24.9902C201.124 25.6738 200.435 26.2025 199.609 26.5762C198.792 26.9499 197.839 27.1367 196.75 27.1367C195.716 27.1367 194.795 26.9544 193.987 26.5898C193.179 26.2161 192.494 25.6875 191.931 25.0039C191.378 24.3203 190.956 23.5091 190.665 22.5703C190.375 21.6224 190.23 20.5697 190.23 19.4121C190.23 17.8171 190.493 16.4453 191.019 15.2969C191.555 14.1393 192.317 13.2552 193.306 12.6445C194.305 12.0247 195.498 11.7148 196.886 11.7148C198.32 11.7148 199.513 12.043 200.466 12.6992C201.428 13.3464 202.15 14.2487 202.631 15.4062C203.112 16.5638 203.352 17.8991 203.352 19.4121ZM191.646 19.4121C191.646 20.7155 191.832 21.8548 192.204 22.8301C192.576 23.8053 193.138 24.5664 193.892 25.1133C194.654 25.6602 195.616 25.9336 196.777 25.9336C197.966 25.9336 198.942 25.6602 199.704 25.1133C200.466 24.5664 201.029 23.8008 201.392 22.8164C201.755 21.832 201.936 20.6973 201.936 19.4121C201.936 18.1634 201.764 17.0514 201.419 16.0762C201.074 15.1009 200.53 14.3353 199.786 13.7793C199.042 13.2142 198.071 12.9316 196.873 12.9316C195.158 12.9316 193.855 13.5059 192.966 14.6543C192.086 15.8027 191.646 17.3887 191.646 19.4121Z" fill="#808080"/>
<path d="M213.997 11.7148C215.903 11.7148 217.377 12.3574 218.421 13.6426C219.474 14.9277 220 16.8236 220 19.3301C220 21.0072 219.75 22.429 219.251 23.5957C218.752 24.7533 218.04 25.6328 217.114 26.2344C216.198 26.8359 215.095 27.1367 213.806 27.1367C212.917 27.1367 212.141 27.0046 211.479 26.7402C210.825 26.4668 210.281 26.1022 209.845 25.6465C209.41 25.1816 209.074 24.6712 208.838 24.1152H208.743C208.77 24.6348 208.793 25.1771 208.811 25.7422C208.829 26.3073 208.838 26.8405 208.838 27.3418V33.4395H207.449V12.002H208.593L208.756 14.9688H208.838C209.083 14.4036 209.428 13.8704 209.872 13.3691C210.317 12.8678 210.88 12.4668 211.56 12.166C212.241 11.8652 213.053 11.7148 213.997 11.7148ZM213.82 12.9316C212.704 12.9316 211.774 13.1777 211.029 13.6699C210.294 14.153 209.745 14.8639 209.382 15.8027C209.029 16.7324 208.847 17.8717 208.838 19.2207V19.4531C208.838 20.9023 209.015 22.11 209.369 23.0762C209.732 24.0332 210.272 24.7487 210.989 25.2227C211.715 25.6966 212.613 25.9336 213.684 25.9336C214.737 25.9336 215.626 25.6738 216.352 25.1543C217.078 24.6348 217.631 23.8828 218.013 22.8984C218.394 21.9141 218.584 20.7201 218.584 19.3164C218.584 17.2292 218.185 15.6432 217.386 14.5586C216.597 13.474 215.408 12.9316 213.82 12.9316Z" fill="#808080"/>
<path d="M67 9C67 11.2091 65.2091 13 63 13C60.7909 13 59 11.2091 59 9C59 6.79086 60.7909 5 63 5C65.2091 5 67 6.79086 67 9Z" fill="#F04438"/>
</svg>
