<svg width="330" height="46" viewBox="0 0 330 46" fill="none" xmlns="http://www.w3.org/2000/svg">
<path d="M0 14C0 6.26802 6.26801 0 14 0H330V25.1578C330 36.2035 321.046 45.1578 310 45.1578H0V14Z" fill="#0D0D12"/>
<path d="M16.6001 25.2088C16.6001 26.0715 16.3903 26.7998 15.9708 27.3934C15.5513 27.987 14.9379 28.4382 14.1305 28.7469C13.3311 29.0477 12.3496 29.1981 11.186 29.1981C10.2678 29.1981 9.47631 29.1308 8.81142 28.9962C8.15445 28.8696 7.5331 28.6717 6.94737 28.4026V25.9924C7.57268 26.2853 8.27318 26.5385 9.04888 26.7523C9.83249 26.966 10.5726 27.0728 11.2691 27.0728C12.1873 27.0728 12.8482 26.9304 13.2519 26.6454C13.6556 26.3525 13.8574 25.9647 13.8574 25.4819C13.8574 25.1969 13.7743 24.9436 13.6081 24.722C13.4498 24.4924 13.149 24.2589 12.7057 24.0215C12.2704 23.7761 11.6293 23.4832 10.7823 23.1429C9.95122 22.8104 9.25072 22.478 8.68082 22.1456C8.11092 21.8131 7.67953 21.4134 7.38667 20.9464C7.0938 20.4715 6.94737 19.866 6.94737 19.1298C6.94737 17.9663 7.40646 17.0837 8.32463 16.4822C9.25072 15.8727 10.4736 15.568 11.9934 15.568C12.8007 15.568 13.5606 15.6511 14.273 15.8173C14.9933 15.9756 15.6977 16.2091 16.3864 16.5178L15.5078 18.6193C14.9141 18.3581 14.3165 18.1444 13.7149 17.9782C13.1213 17.804 12.5158 17.717 11.8984 17.717C11.1781 17.717 10.628 17.8278 10.248 18.0494C9.87603 18.271 9.69002 18.5876 9.69002 18.9992C9.69002 19.3079 9.78104 19.5691 9.9631 19.7828C10.1451 19.9966 10.4578 20.2103 10.9011 20.424C11.3522 20.6377 11.9775 20.9029 12.777 21.2195C13.5606 21.5203 14.2374 21.8369 14.8073 22.1693C15.3851 22.4938 15.8283 22.8936 16.137 23.3685C16.4457 23.8434 16.6001 24.4568 16.6001 25.2088Z" fill="white"/>
<path d="M24.8518 15.568C26.0232 15.568 27.0285 15.8094 27.8675 16.2922C28.7065 16.775 29.3516 17.4597 29.8028 18.3462C30.254 19.2327 30.4795 20.2934 30.4795 21.5282V23.0242H21.7054C21.7371 24.2985 22.0775 25.28 22.7265 25.9686C23.3835 26.6573 24.3017 27.0016 25.481 27.0016C26.3201 27.0016 27.072 26.9224 27.7369 26.7641C28.4097 26.5979 29.1023 26.3565 29.8147 26.0399V28.3076C29.1577 28.6163 28.4888 28.8419 27.8081 28.9844C27.1274 29.1268 26.3121 29.1981 25.3623 29.1981C24.0721 29.1981 22.9363 28.9488 21.9548 28.4501C20.9812 27.9435 20.2174 27.1916 19.6633 26.1942C19.1171 25.1969 18.8441 23.9582 18.8441 22.478C18.8441 21.0058 19.0934 19.7551 19.5921 18.7262C20.0907 17.6972 20.7912 16.9136 21.6936 16.3753C22.5959 15.8371 23.6486 15.568 24.8518 15.568ZM24.8518 17.6695C23.9732 17.6695 23.2608 17.9544 22.7146 18.5243C22.1764 19.0942 21.8598 19.9293 21.7648 21.0295H27.7488C27.7409 20.3725 27.63 19.7908 27.4163 19.2842C27.2105 18.7776 26.8939 18.3818 26.4665 18.0969C26.047 17.8119 25.5087 17.6695 24.8518 17.6695Z" fill="white"/>
<path d="M31.6431 15.8173H34.6826L37.3777 23.321C37.4965 23.6613 37.6033 23.9977 37.6983 24.3302C37.8012 24.6547 37.8883 24.9753 37.9595 25.2919C38.0386 25.6085 38.102 25.9251 38.1495 26.2417H38.2207C38.2999 25.8301 38.4107 25.371 38.5531 24.8645C38.7035 24.35 38.8698 23.8355 39.0518 23.321L41.6401 15.8173H44.644L39.0043 30.7653C38.6798 31.6202 38.2801 32.3484 37.8052 32.9499C37.3382 33.5594 36.7841 34.0185 36.1429 34.3272C35.5018 34.6438 34.7696 34.8021 33.9464 34.8021C33.5507 34.8021 33.2064 34.7784 32.9135 34.7309C32.6206 34.6913 32.3713 34.6478 32.1655 34.6003V32.3682C32.3317 32.4077 32.5415 32.4434 32.7948 32.475C33.0481 32.5067 33.3093 32.5225 33.5784 32.5225C34.077 32.5225 34.5084 32.4236 34.8725 32.2257C35.2366 32.0278 35.5453 31.7468 35.7986 31.3827C36.0519 31.0265 36.2617 30.6189 36.4279 30.1598L36.8909 28.925L31.6431 15.8173Z" fill="white"/>
<path d="M53.2044 17.9425H50.0105V28.9606H47.2204V17.9425H45.0714V16.6009L47.2204 15.7817V14.8675C47.2204 13.7514 47.3945 12.8649 47.7428 12.2079C48.099 11.5509 48.6056 11.08 49.2625 10.795C49.9274 10.5022 50.719 10.3557 51.6371 10.3557C52.2387 10.3557 52.7888 10.4072 53.2875 10.5101C53.7861 10.6051 54.2056 10.7159 54.546 10.8425L53.8218 12.9559C53.5526 12.8688 53.2519 12.7897 52.9194 12.7185C52.587 12.6393 52.2308 12.5997 51.8508 12.5997C51.2176 12.5997 50.7506 12.7976 50.4498 13.1934C50.157 13.5891 50.0105 14.167 50.0105 14.9268V15.8173H53.2044V17.9425Z" fill="white"/>
<path d="M55.0447 27.4884C55.0447 26.8393 55.2109 26.3842 55.5433 26.123C55.8837 25.8539 56.2953 25.7193 56.7781 25.7193C57.261 25.7193 57.6725 25.8539 58.0129 26.123C58.3612 26.3842 58.5353 26.8393 58.5353 27.4884C58.5353 28.1216 58.3612 28.5807 58.0129 28.8656C57.6725 29.1427 57.261 29.2812 56.7781 29.2812C56.2953 29.2812 55.8837 29.1427 55.5433 28.8656C55.2109 28.5807 55.0447 28.1216 55.0447 27.4884Z" fill="white"/>
<path d="M100.312 25.5115C100.312 26.2793 100.119 26.9363 99.7315 27.4824C99.3522 28.0207 98.795 28.4323 98.06 28.7172C97.325 28.9943 96.4201 29.1328 95.3453 29.1328C94.4522 29.1328 93.654 29.0536 92.9506 28.8953C92.2472 28.737 91.6584 28.5431 91.1842 28.3136V27.1263C91.777 27.4191 92.4329 27.6566 93.1521 27.8386C93.8713 28.0207 94.6103 28.1117 95.369 28.1117C96.6967 28.1117 97.653 27.8861 98.2378 27.435C98.8227 26.9838 99.1151 26.3664 99.1151 25.5828C99.1151 25.0683 98.9689 24.6448 98.6765 24.3124C98.3919 23.972 97.981 23.6791 97.4436 23.4338C96.9061 23.1884 96.2581 22.9391 95.4994 22.6858C94.709 22.4167 94.0057 22.1515 93.3892 21.8903C92.7807 21.6212 92.3025 21.2689 91.9548 20.8336C91.607 20.3903 91.4332 19.7888 91.4332 19.0289C91.4332 17.992 91.8481 17.1847 92.6779 16.6068C93.5078 16.029 94.6221 15.7401 96.021 15.7401C96.7955 15.7401 97.5147 15.8153 98.1786 15.9657C98.8503 16.1082 99.4589 16.2942 100.004 16.5237L99.5774 17.5448C99.0874 17.3153 98.5223 17.1292 97.8822 16.9868C97.242 16.8443 96.6019 16.7731 95.9617 16.7731C94.9106 16.7731 94.0886 16.9591 93.4959 17.3311C92.9032 17.7031 92.6068 18.2493 92.6068 18.9696C92.6068 19.5236 92.749 19.959 93.0336 20.2756C93.3181 20.5843 93.7251 20.8455 94.2546 21.0592C94.7841 21.265 95.4124 21.4945 96.1395 21.7478C96.8903 22.009 97.5819 22.2821 98.2141 22.5671C98.8543 22.852 99.364 23.2201 99.7434 23.6712C100.123 24.1224 100.312 24.7358 100.312 25.5115Z" fill="white"/>
<path d="M107.046 28.0998C107.417 28.0998 107.761 28.0721 108.077 28.0167C108.401 27.9613 108.686 27.8901 108.931 27.803V28.8003C108.678 28.8874 108.382 28.9626 108.042 29.0259C107.702 29.0972 107.327 29.1328 106.916 29.1328C106.188 29.1328 105.584 28.9982 105.102 28.7291C104.62 28.4521 104.256 28.0365 104.011 27.4824C103.766 26.9205 103.644 26.2081 103.644 25.3453V16.9868H101.723V16.2744L103.632 15.9063L104.047 12.8669H104.841V15.9894H108.86V16.9868H104.841V25.2741C104.841 26.2002 105.011 26.9046 105.351 27.3875C105.698 27.8624 106.264 28.0998 107.046 28.0998Z" fill="white"/>
<path d="M116.198 15.7639C117.613 15.7639 118.672 16.1201 119.375 16.8324C120.078 17.5448 120.43 18.6806 120.43 20.24V28.8953H119.505L119.292 26.6395H119.221C118.944 27.1223 118.608 27.5537 118.213 27.9336C117.818 28.3056 117.332 28.5985 116.755 28.8122C116.186 29.0259 115.491 29.1328 114.669 29.1328C113.839 29.1328 113.127 28.9943 112.535 28.7172C111.95 28.4402 111.495 28.0365 111.171 27.5062C110.855 26.9759 110.697 26.3308 110.697 25.5709C110.697 24.2886 111.227 23.315 112.286 22.6502C113.345 21.9774 114.866 21.5974 116.85 21.5104L119.245 21.3916V20.4537C119.245 19.1318 118.984 18.1899 118.462 17.6279C117.941 17.0659 117.17 16.7849 116.15 16.7849C115.487 16.7849 114.846 16.872 114.23 17.0461C113.621 17.2124 113.001 17.4538 112.369 17.7704L111.989 16.7731C112.606 16.4802 113.266 16.2388 113.969 16.0488C114.68 15.8588 115.423 15.7639 116.198 15.7639ZM119.233 22.3296L116.98 22.4246C115.344 22.5037 114.1 22.7966 113.246 23.3032C112.392 23.8098 111.966 24.5696 111.966 25.5828C111.966 26.3981 112.219 27.0234 112.724 27.4587C113.238 27.894 113.949 28.1117 114.858 28.1117C116.273 28.1117 117.352 27.708 118.095 26.9007C118.845 26.0933 119.225 24.9931 119.233 23.6V22.3296Z" fill="white"/>
<path d="M127.982 34.7368C126.361 34.7368 125.101 34.4242 124.2 33.7988C123.307 33.1735 122.86 32.2989 122.86 31.1749C122.86 30.3042 123.133 29.5523 123.678 28.9191C124.224 28.2938 124.963 27.9178 125.895 27.7911C125.524 27.617 125.219 27.3795 124.982 27.0788C124.753 26.778 124.639 26.4297 124.639 26.0339C124.639 25.5907 124.777 25.1791 125.053 24.7992C125.33 24.4113 125.745 24.0551 126.298 23.7306C125.555 23.4615 124.97 23.0063 124.544 22.3652C124.117 21.7162 123.904 20.9365 123.904 20.0262C123.904 19.1556 124.089 18.3997 124.461 17.7585C124.832 17.1174 125.358 16.6227 126.037 16.2744C126.725 15.9182 127.535 15.7401 128.468 15.7401C128.752 15.7401 129.009 15.748 129.238 15.7639C129.475 15.7797 129.693 15.8074 129.89 15.847C130.088 15.8786 130.266 15.9222 130.424 15.9776H134.585V16.8324L131.929 17.0105C132.277 17.43 132.538 17.8852 132.712 18.3759C132.886 18.8587 132.972 19.3693 132.972 19.9075C132.972 21.1898 132.569 22.2069 131.763 22.9589C130.957 23.7108 129.835 24.0868 128.396 24.0868C128.001 24.0868 127.614 24.0512 127.235 23.9799C126.753 24.2649 126.385 24.5538 126.132 24.8467C125.879 25.1316 125.753 25.4878 125.753 25.9152C125.753 26.1843 125.832 26.406 125.99 26.5801C126.148 26.7463 126.377 26.8769 126.678 26.9719C126.978 27.059 127.345 27.1025 127.78 27.1025H130.044C131.443 27.1025 132.514 27.3875 133.257 27.9574C134 28.5273 134.371 29.3663 134.371 30.4744C134.371 31.8279 133.814 32.8767 132.7 33.6208C131.593 34.3648 130.021 34.7368 127.982 34.7368ZM128.065 33.7276C129.195 33.7276 130.135 33.6049 130.886 33.3595C131.645 33.1142 132.214 32.7501 132.593 32.2672C132.972 31.7923 133.162 31.2026 133.162 30.4982C133.162 29.9204 133.024 29.4731 132.747 29.1565C132.471 28.8399 132.079 28.6222 131.574 28.5035C131.068 28.3769 130.471 28.3136 129.784 28.3136H127.626C126.938 28.3136 126.326 28.4085 125.788 28.5985C125.251 28.7806 124.832 29.0734 124.532 29.4771C124.239 29.8808 124.093 30.419 124.093 31.0918C124.093 31.9546 124.429 32.6076 125.101 33.0508C125.781 33.502 126.768 33.7276 128.065 33.7276ZM128.444 23.1251C129.511 23.1251 130.329 22.856 130.898 22.3177C131.467 21.7795 131.751 20.9998 131.751 19.9788C131.751 18.8864 131.459 18.0672 130.874 17.5211C130.289 16.9749 129.471 16.7018 128.42 16.7018C127.401 16.7018 126.599 16.9947 126.014 17.5804C125.437 18.1582 125.148 18.9735 125.148 20.0262C125.148 21.0077 125.425 21.7716 125.978 22.3177C126.531 22.856 127.353 23.1251 128.444 23.1251Z" fill="white"/>
<path d="M142.065 15.7401C143.164 15.7401 144.076 15.9974 144.804 16.5119C145.539 17.0264 146.084 17.7308 146.44 18.6252C146.803 19.5197 146.985 20.5447 146.985 21.7003V22.5671H137.679C137.679 24.3401 138.086 25.7015 138.9 26.6513C139.722 27.6012 140.895 28.0761 142.421 28.0761C143.219 28.0761 143.91 28.0128 144.495 27.8861C145.088 27.7516 145.744 27.526 146.463 27.2094V28.3136C145.831 28.5985 145.199 28.8043 144.566 28.9309C143.934 29.0655 143.207 29.1328 142.385 29.1328C141.081 29.1328 139.987 28.8637 139.101 28.3254C138.224 27.7793 137.56 27.0115 137.11 26.0221C136.667 25.0327 136.446 23.877 136.446 22.5552C136.446 21.265 136.659 20.1054 137.086 19.0764C137.521 18.0474 138.153 17.2361 138.983 16.6425C139.821 16.0409 140.848 15.7401 142.065 15.7401ZM142.053 16.7731C140.82 16.7731 139.821 17.1847 139.054 18.0078C138.295 18.8231 137.849 20.0025 137.714 21.546H145.74C145.74 20.6041 145.606 19.773 145.337 19.0527C145.068 18.3324 144.661 17.7743 144.116 17.3786C143.579 16.9749 142.891 16.7731 142.053 16.7731Z" fill="white"/>
<path d="M162.088 11.264C162.87 11.264 163.558 11.4105 164.151 11.7033C164.743 11.9883 165.202 12.3999 165.526 12.9381C165.858 13.4763 166.024 14.1175 166.024 14.8615C166.024 15.9459 165.664 16.8403 164.945 17.5448C164.234 18.2493 163.297 18.8983 162.135 19.492L167.577 24.9416C168.035 24.3876 168.434 23.7464 168.774 23.0182C169.114 22.29 169.383 21.5024 169.58 20.6555H170.801C170.556 21.6687 170.228 22.5987 169.817 23.4456C169.406 24.2926 168.916 25.0564 168.347 25.7371L171.465 28.8953H169.853L167.565 26.5326C167.059 27.0392 166.514 27.4904 165.929 27.8861C165.352 28.2819 164.704 28.5906 163.985 28.8122C163.265 29.0259 162.436 29.1328 161.495 29.1328C160.428 29.1328 159.492 28.9547 158.686 28.5985C157.887 28.2423 157.263 27.7199 156.812 27.0313C156.362 26.3347 156.137 25.4838 156.137 24.4786C156.137 23.6 156.303 22.8599 156.635 22.2584C156.967 21.6489 157.445 21.1146 158.069 20.6555C158.693 20.1885 159.444 19.7294 160.322 19.2782C159.839 18.7796 159.417 18.3126 159.053 17.8772C158.689 17.434 158.405 16.9789 158.2 16.5119C158.002 16.0449 157.903 15.5224 157.903 14.9446C157.903 14.1927 158.077 13.5436 158.425 12.9975C158.773 12.4434 159.259 12.016 159.883 11.7152C160.515 11.4144 161.25 11.264 162.088 11.264ZM161.08 20.0619C160.29 20.4576 159.618 20.8494 159.065 21.2373C158.52 21.6251 158.105 22.0723 157.82 22.5789C157.536 23.0776 157.393 23.6989 157.393 24.443C157.393 25.5749 157.769 26.4614 158.52 27.1025C159.278 27.7357 160.278 28.0523 161.519 28.0523C162.752 28.0523 163.775 27.8426 164.589 27.4231C165.403 26.9957 166.138 26.4455 166.794 25.7727L161.08 20.0619ZM162.052 12.297C161.143 12.297 160.424 12.5344 159.895 13.0093C159.365 13.4843 159.1 14.1294 159.1 14.9446C159.1 15.6253 159.294 16.2507 159.681 16.8206C160.069 17.3825 160.618 18.0276 161.329 18.7558C162.459 18.2097 163.325 17.6437 163.925 17.058C164.526 16.4644 164.826 15.7322 164.826 14.8615C164.826 14.0779 164.573 13.4566 164.068 12.9975C163.562 12.5305 162.89 12.297 162.052 12.297Z" fill="white"/>
<path d="M186.189 15.7401C187.848 15.7401 189.133 16.2981 190.042 17.4142C190.958 18.5303 191.417 20.1766 191.417 22.3533C191.417 23.8098 191.199 25.0445 190.765 26.0577C190.33 27.0629 189.71 27.8268 188.903 28.3492C188.105 28.8716 187.145 29.1328 186.023 29.1328C185.248 29.1328 184.573 29.018 183.996 28.7885C183.427 28.551 182.952 28.2344 182.573 27.8386C182.194 27.435 181.901 26.9917 181.696 26.5089H181.613C181.636 26.96 181.656 27.431 181.672 27.9217C181.688 28.4125 181.696 28.8755 181.696 29.3109V34.6062H180.487V15.9894H181.482L181.625 18.5659H181.696C181.909 18.0751 182.209 17.6121 182.597 17.1767C182.984 16.7414 183.474 16.3931 184.067 16.1319C184.659 15.8707 185.367 15.7401 186.189 15.7401ZM186.035 16.7968C185.063 16.7968 184.252 17.0105 183.604 17.4379C182.964 17.8575 182.486 18.4748 182.17 19.2901C181.862 20.0975 181.704 21.0869 181.696 22.2584V22.4602C181.696 23.7187 181.85 24.7675 182.158 25.6065C182.474 26.4376 182.944 27.059 183.569 27.4706C184.201 27.8822 184.983 28.088 185.916 28.088C186.833 28.088 187.607 27.8624 188.24 27.4112C188.872 26.96 189.354 26.307 189.686 25.4522C190.018 24.5973 190.184 23.5604 190.184 22.3415C190.184 20.5289 189.836 19.1516 189.141 18.2097C188.453 17.2678 187.418 16.7968 186.035 16.7968Z" fill="white"/>
<path d="M200.071 15.7639C200.411 15.7639 200.731 15.7836 201.031 15.8232C201.331 15.8628 201.612 15.9182 201.873 15.9894L201.683 17.0936C201.422 17.0224 201.157 16.9709 200.889 16.9393C200.62 16.8997 200.332 16.8799 200.023 16.8799C199.415 16.8799 198.869 16.9947 198.387 17.2242C197.913 17.4538 197.51 17.7823 197.178 18.2097C196.846 18.6371 196.593 19.1516 196.419 19.7532C196.246 20.3547 196.159 21.0275 196.159 21.7716V28.8953H194.949V15.9894H195.981L196.099 18.4234H196.171C196.368 17.9247 196.645 17.4775 197 17.0818C197.364 16.6781 197.803 16.3575 198.316 16.12C198.83 15.8826 199.415 15.7639 200.071 15.7639Z" fill="white"/>
<path d="M215.091 22.4246C215.091 23.4219 214.968 24.3322 214.723 25.1553C214.478 25.9706 214.115 26.6751 213.633 27.2687C213.151 27.8624 212.55 28.3215 211.831 28.646C211.119 28.9705 210.29 29.1328 209.341 29.1328C208.44 29.1328 207.638 28.9745 206.935 28.6579C206.231 28.3333 205.635 27.8743 205.145 27.2806C204.662 26.687 204.295 25.9825 204.042 25.1672C203.789 24.344 203.663 23.4298 203.663 22.4246C203.663 21.0394 203.892 19.8481 204.35 18.8508C204.817 17.8456 205.48 17.0778 206.342 16.5475C207.211 16.0092 208.251 15.7401 209.46 15.7401C210.708 15.7401 211.748 16.0251 212.578 16.595C213.415 17.157 214.044 17.9406 214.462 18.9458C214.881 19.951 215.091 21.1106 215.091 22.4246ZM204.896 22.4246C204.896 23.5565 205.058 24.5459 205.382 25.3928C205.706 26.2397 206.196 26.9007 206.852 27.3756C207.516 27.8505 208.353 28.088 209.365 28.088C210.4 28.088 211.25 27.8505 211.914 27.3756C212.578 26.9007 213.068 26.2358 213.384 25.3809C213.7 24.5261 213.858 23.5406 213.858 22.4246C213.858 21.3402 213.708 20.3745 213.407 19.5276C213.107 18.6806 212.633 18.0158 211.985 17.5329C211.337 17.0422 210.491 16.7968 209.448 16.7968C207.954 16.7968 206.82 17.2955 206.046 18.2928C205.279 19.2901 204.896 20.6674 204.896 22.4246Z" fill="white"/>
<path d="M224.361 15.7401C226.021 15.7401 227.305 16.2981 228.214 17.4142C229.131 18.5303 229.589 20.1766 229.589 22.3533C229.589 23.8098 229.372 25.0445 228.937 26.0577C228.503 27.0629 227.882 27.8268 227.076 28.3492C226.278 28.8716 225.318 29.1328 224.195 29.1328C223.421 29.1328 222.745 29.018 222.168 28.7885C221.599 28.551 221.125 28.2344 220.746 27.8386C220.366 27.435 220.074 26.9917 219.868 26.5089H219.785C219.809 26.96 219.829 27.431 219.845 27.9217C219.86 28.4125 219.868 28.8755 219.868 29.3109V34.6062H218.659V15.9894H219.655L219.797 18.5659H219.868C220.082 18.0751 220.382 17.6121 220.769 17.1767C221.156 16.7414 221.646 16.3931 222.239 16.1319C222.832 15.8707 223.539 15.7401 224.361 15.7401ZM224.207 16.7968C223.235 16.7968 222.425 17.0105 221.777 17.4379C221.137 17.8575 220.659 18.4748 220.342 19.2901C220.034 20.0975 219.876 21.0869 219.868 22.2584V22.4602C219.868 23.7187 220.022 24.7675 220.331 25.6065C220.647 26.4376 221.117 27.059 221.741 27.4706C222.374 27.8822 223.156 28.088 224.089 28.088C225.005 28.088 225.78 27.8624 226.412 27.4112C227.044 26.96 227.526 26.307 227.858 25.4522C228.19 24.5973 228.356 23.5604 228.356 22.3415C228.356 20.5289 228.009 19.1516 227.313 18.2097C226.626 17.2678 225.59 16.7968 224.207 16.7968Z" fill="white"/>
<path d="M244.088 29.1328C242.325 29.1328 240.982 28.5787 240.057 27.4706C239.14 26.3545 238.682 24.7319 238.682 22.6027C238.682 20.3706 239.168 18.6688 240.14 17.4973C241.112 16.3258 242.468 15.7401 244.206 15.7401C244.949 15.7401 245.593 15.8549 246.139 16.0844C246.692 16.314 247.154 16.6266 247.526 17.0224C247.905 17.4102 248.197 17.8535 248.403 18.3522H248.498C248.466 17.9327 248.442 17.4815 248.427 16.9986C248.411 16.5158 248.403 16.0726 248.403 15.6689V10.421H249.6V28.8953H248.628L248.474 26.5326H248.403C248.189 27.0075 247.893 27.4429 247.514 27.8386C247.142 28.2344 246.676 28.551 246.115 28.7885C245.554 29.018 244.878 29.1328 244.088 29.1328ZM244.218 28.088C245.736 28.088 246.814 27.617 247.454 26.6751C248.095 25.7253 248.415 24.3717 248.415 22.6145V22.4246C248.415 20.6041 248.095 19.211 247.454 18.2453C246.814 17.2717 245.771 16.7849 244.325 16.7849C242.894 16.7849 241.8 17.2836 241.041 18.2809C240.29 19.2782 239.915 20.7267 239.915 22.6264C239.915 24.4153 240.266 25.7727 240.97 26.6988C241.681 27.6249 242.764 28.088 244.218 28.088Z" fill="white"/>
<path d="M255.077 15.9894V28.8953H253.88V15.9894H255.077ZM254.496 11.2165C254.797 11.2165 255.018 11.3076 255.16 11.4896C255.302 11.6637 255.373 11.9012 255.373 12.202C255.373 12.5028 255.302 12.7402 255.16 12.9144C255.018 13.0885 254.797 13.1756 254.496 13.1756C254.212 13.1756 253.998 13.0885 253.856 12.9144C253.714 12.7402 253.643 12.5028 253.643 12.202C253.643 11.9012 253.714 11.6637 253.856 11.4896C253.998 11.3076 254.212 11.2165 254.496 11.2165Z" fill="white"/>
<path d="M264.514 15.7639C264.853 15.7639 265.173 15.7836 265.474 15.8232C265.774 15.8628 266.055 15.9182 266.315 15.9894L266.126 17.0936C265.865 17.0224 265.6 16.9709 265.332 16.9393C265.063 16.8997 264.774 16.8799 264.466 16.8799C263.858 16.8799 263.312 16.9947 262.83 17.2242C262.356 17.4538 261.953 17.7823 261.621 18.2097C261.289 18.6371 261.036 19.1516 260.862 19.7532C260.688 20.3547 260.601 21.0275 260.601 21.7716V28.8953H259.392V15.9894H260.424L260.542 18.4234H260.613C260.811 17.9247 261.087 17.4775 261.443 17.0818C261.807 16.6781 262.245 16.3575 262.759 16.12C263.273 15.8826 263.858 15.7639 264.514 15.7639Z" fill="white"/>
<path d="M273.725 15.7401C274.823 15.7401 275.736 15.9974 276.463 16.5119C277.198 17.0264 277.743 17.7308 278.099 18.6252C278.463 19.5197 278.644 20.5447 278.644 21.7003V22.5671H269.338C269.338 24.3401 269.745 25.7015 270.559 26.6513C271.381 27.6012 272.555 28.0761 274.08 28.0761C274.879 28.0761 275.57 28.0128 276.155 27.8861C276.748 27.7516 277.404 27.526 278.123 27.2094V28.3136C277.491 28.5985 276.858 28.8043 276.226 28.9309C275.594 29.0655 274.867 29.1328 274.045 29.1328C272.741 29.1328 271.646 28.8637 270.761 28.3254C269.884 27.7793 269.22 27.0115 268.769 26.0221C268.327 25.0327 268.106 23.877 268.106 22.5552C268.106 21.265 268.319 20.1054 268.746 19.0764C269.18 18.0474 269.813 17.2361 270.642 16.6425C271.48 16.0409 272.508 15.7401 273.725 15.7401ZM273.713 16.7731C272.48 16.7731 271.48 17.1847 270.714 18.0078C269.955 18.8231 269.508 20.0025 269.374 21.546H277.4C277.4 20.6041 277.265 19.773 276.997 19.0527C276.728 18.3324 276.321 17.7743 275.776 17.3786C275.238 16.9749 274.551 16.7731 273.713 16.7731Z" fill="white"/>
<path d="M287.358 29.1328C286.077 29.1328 284.995 28.8676 284.11 28.3373C283.232 27.7991 282.568 27.0352 282.118 26.0458C281.675 25.0485 281.454 23.8691 281.454 22.5077C281.454 21.0909 281.711 19.8798 282.225 18.8746C282.738 17.8614 283.461 17.0857 284.394 16.5475C285.327 16.0092 286.421 15.7401 287.678 15.7401C288.294 15.7401 288.867 15.7955 289.397 15.9063C289.926 16.0172 290.404 16.1715 290.831 16.3694L290.511 17.4261C290.069 17.2282 289.598 17.0778 289.1 16.9749C288.603 16.872 288.124 16.8206 287.666 16.8206C286.607 16.8206 285.706 17.0541 284.963 17.5211C284.228 17.9801 283.663 18.6371 283.268 19.492C282.881 20.3389 282.687 21.3402 282.687 22.4958C282.687 23.5802 282.853 24.5419 283.185 25.3809C283.517 26.212 284.027 26.869 284.714 27.3518C285.402 27.8268 286.283 28.0642 287.358 28.0642C287.982 28.0642 288.575 28.0009 289.136 27.8743C289.705 27.7476 290.223 27.5853 290.689 27.3875V28.4798C290.27 28.6697 289.784 28.8241 289.231 28.9428C288.686 29.0695 288.061 29.1328 287.358 29.1328Z" fill="white"/>
<path d="M297.221 28.0998C297.592 28.0998 297.936 28.0721 298.252 28.0167C298.576 27.9613 298.861 27.8901 299.106 27.803V28.8003C298.853 28.8874 298.557 28.9626 298.217 29.0259C297.877 29.0972 297.502 29.1328 297.091 29.1328C296.364 29.1328 295.759 28.9982 295.277 28.7291C294.795 28.4521 294.431 28.0365 294.186 27.4824C293.941 26.9205 293.819 26.2081 293.819 25.3453V16.9868H291.898V16.2744L293.807 15.9063L294.222 12.8669H295.016V15.9894H299.035V16.9868H295.016V25.2741C295.016 26.2002 295.186 26.9046 295.526 27.3875C295.874 27.8624 296.439 28.0998 297.221 28.0998Z" fill="white"/>
<path d="M312.561 22.4246C312.561 23.4219 312.439 24.3322 312.194 25.1553C311.949 25.9706 311.585 26.6751 311.103 27.2687C310.621 27.8624 310.02 28.3215 309.301 28.646C308.59 28.9705 307.76 29.1328 306.812 29.1328C305.911 29.1328 305.108 28.9745 304.405 28.6579C303.702 28.3333 303.105 27.8743 302.615 27.2806C302.133 26.687 301.765 25.9825 301.512 25.1672C301.26 24.344 301.133 23.4298 301.133 22.4246C301.133 21.0394 301.362 19.8481 301.821 18.8508C302.287 17.8456 302.951 17.0778 303.812 16.5475C304.682 16.0092 305.721 15.7401 306.93 15.7401C308.179 15.7401 309.218 16.0251 310.048 16.595C310.886 17.157 311.514 17.9406 311.933 18.9458C312.352 19.951 312.561 21.1106 312.561 22.4246ZM302.366 22.4246C302.366 23.5565 302.528 24.5459 302.852 25.3928C303.176 26.2397 303.666 26.9007 304.322 27.3756C304.986 27.8505 305.824 28.088 306.835 28.088C307.871 28.088 308.72 27.8505 309.384 27.3756C310.048 26.9007 310.538 26.2358 310.854 25.3809C311.17 24.5261 311.328 23.5406 311.328 22.4246C311.328 21.3402 311.178 20.3745 310.878 19.5276C310.577 18.6806 310.103 18.0158 309.455 17.5329C308.807 17.0422 307.961 16.7968 306.918 16.7968C305.425 16.7968 304.29 17.2955 303.516 18.2928C302.749 19.2901 302.366 20.6674 302.366 22.4246Z" fill="white"/>
<path d="M321.251 15.7639C321.591 15.7639 321.911 15.7836 322.211 15.8232C322.511 15.8628 322.792 15.9182 323.053 15.9894L322.863 17.0936C322.602 17.0224 322.337 16.9709 322.069 16.9393C321.8 16.8997 321.512 16.8799 321.203 16.8799C320.595 16.8799 320.049 16.9947 319.567 17.2242C319.093 17.4538 318.69 17.7823 318.358 18.2097C318.026 18.6371 317.773 19.1516 317.599 19.7532C317.426 20.3547 317.339 21.0275 317.339 21.7716V28.8953H316.129V15.9894H317.161L317.279 18.4234H317.35C317.548 17.9247 317.825 17.4775 318.18 17.0818C318.544 16.6781 318.982 16.3575 319.496 16.12C320.01 15.8826 320.595 15.7639 321.251 15.7639Z" fill="white"/>
</svg>
